<svg xmlns="http://www.w3.org/2000/svg" xmlns:xlink="http://www.w3.org/1999/xlink" width="500" zoomAndPan="magnify" viewBox="0 0 375 374.999991" height="500" preserveAspectRatio="xMidYMid meet" version="1.0"><defs><g/><clipPath id="329e4771ce"><path d="M 54.027344 65 L 336 65 L 336 328 L 54.027344 328 Z M 54.027344 65 " clip-rule="nonzero"/></clipPath><clipPath id="5b31681362"><path d="M 54.027344 131.738281 L 54.027344 262.5 C 54.027344 303.921875 87.609375 337.5 129.027344 337.5 L 268.746094 337.5 C 310.167969 337.5 343.746094 303.921875 343.746094 262.5 L 343.746094 131.738281 C 343.746094 90.316406 310.167969 56.738281 268.746094 56.738281 L 129.027344 56.738281 C 87.609375 56.738281 54.027344 90.316406 54.027344 131.738281 Z M 54.027344 131.738281 " clip-rule="nonzero"/></clipPath><clipPath id="60921fd411"><path d="M 131.25 131.25 L 243.75 131.25 L 243.75 243.75 L 131.25 243.75 Z M 131.25 131.25 " clip-rule="nonzero"/></clipPath><clipPath id="6fe68ceeef"><path d="M 54.519531 53.054688 L 338.769531 53.054688 L 338.769531 337.304688 L 54.519531 337.304688 Z M 54.519531 53.054688 " clip-rule="nonzero"/></clipPath><clipPath id="b910662bad"><path d="M 54.519531 83.804688 L 54.519531 306.75 C 54.519531 323.734375 68.285156 337.5 85.269531 337.5 L 308.214844 337.5 C 325.195312 337.5 338.964844 323.734375 338.964844 306.75 L 338.964844 83.804688 C 338.964844 66.824219 325.195312 53.054688 308.214844 53.054688 L 85.269531 53.054688 C 68.285156 53.054688 54.519531 66.824219 54.519531 83.804688 Z M 54.519531 83.804688 " clip-rule="nonzero"/></clipPath></defs><rect x="-37.5" width="450" fill="#ffffff" y="-37.499999" height="449.999989" fill-opacity="1"/><rect x="-37.5" width="450" fill="#ffffff" y="-37.499999" height="449.999989" fill-opacity="1"/><g clip-path="url(#329e4771ce)"><g clip-path="url(#5b31681362)"><path fill="#6a0dad" d="M 332.351562 229.0625 L 326.980469 245.980469 C 312.746094 279.246094 288.75 302.828125 254.992188 316.734375 C 221.042969 330.578125 184.90625 330.832031 146.582031 317.503906 C 110.421875 303.042969 84.296875 279.804688 68.203125 247.792969 C 63.066406 237.457031 59.382812 226.65625 57.152344 215.390625 L 55.027344 198.324219 C 54.378906 186.78125 55.4375 175.144531 58.203125 163.425781 C 67.789062 127.71875 88.332031 101.019531 119.832031 83.324219 C 151.332031 65.632812 186.605469 60.980469 225.65625 69.371094 C 264.269531 79.574219 293.613281 99.699219 313.683594 129.738281 C 333.753906 159.777344 339.980469 192.886719 332.351562 229.0625 " fill-opacity="1" fill-rule="nonzero"/></g></g><g clip-path="url(#60921fd411)"><path fill="#320057" d="M 131.25 131.25 L 243.75 131.25 L 243.75 243.75 L 131.25 243.75 Z M 131.25 131.25 " fill-opacity="1" fill-rule="nonzero"/></g><g clip-path="url(#6fe68ceeef)"><g clip-path="url(#b910662bad)"><path fill="#000000" d="M 196.726562 53.054688 C 235.996094 53.054688 271.546875 68.972656 297.28125 94.707031 C 323.019531 120.445312 338.9375 155.992188 338.9375 195.261719 C 338.9375 234.53125 323.019531 270.085938 297.28125 295.816406 C 271.546875 321.554688 235.996094 337.472656 196.726562 337.472656 C 157.457031 337.472656 121.90625 321.554688 96.167969 295.816406 C 70.433594 270.085938 54.519531 234.53125 54.519531 195.261719 C 54.519531 155.992188 70.433594 120.445312 96.167969 94.707031 C 121.90625 68.972656 157.457031 53.054688 196.726562 53.054688 Z M 286.109375 105.878906 C 263.238281 83.003906 231.632812 68.855469 196.726562 68.855469 C 161.820312 68.855469 130.214844 83.003906 107.34375 105.878906 C 84.46875 128.753906 70.320312 160.355469 70.320312 195.261719 C 70.320312 230.167969 84.46875 261.773438 107.34375 284.648438 C 130.214844 307.523438 161.820312 321.671875 196.726562 321.671875 C 231.632812 321.671875 263.238281 307.523438 286.109375 284.648438 C 308.988281 261.773438 323.136719 230.167969 323.136719 195.261719 C 323.136719 160.355469 308.988281 128.753906 286.109375 105.878906 " fill-opacity="1" fill-rule="nonzero"/></g></g><path stroke-linecap="butt" transform="matrix(0.714855, 0, 0, 0.714855, 59.971784, 79.245494)" fill="none" stroke-linejoin="miter" d="M 92.600822 26.891116 L 93.83031 134.736374 L 65.278858 134.036931 L 63.120422 72.578905 L 48.011376 95.157776 L 33.869527 73.409493 L 31.678306 133.638031 L 2.722488 134.736374 L 4.214267 25.929383 L 32.90233 26.328284 L 48.011376 50.830621 L 62.552125 26.459429 Z M 92.600822 26.891116 " stroke="#320057" stroke-width="18.870001" stroke-opacity="1" stroke-miterlimit="4"/><g fill="#e67e22" fill-opacity="1"><g transform="translate(59.971784, 175.750955)"><g><path d="M 66.203125 -77.28125 L 67.078125 -0.1875 L 46.671875 -0.6875 L 45.109375 -44.625 L 34.3125 -28.484375 L 24.203125 -44.046875 L 22.65625 -0.96875 L 1.9375 -0.1875 L 3.015625 -77.96875 L 23.53125 -77.671875 L 34.3125 -60.171875 L 44.71875 -77.578125 Z M 66.203125 -77.28125 "/></g></g></g><path stroke-linecap="butt" transform="matrix(0.813814, 0, 0, 0.813814, 125.070553, 64.153664)" fill="none" stroke-linejoin="miter" d="M 79.822493 38.580192 L 81.876862 134.732333 L 53.590891 135.265125 L 52.760504 101.396839 L 31.146432 102.760018 L 28.952865 134.602735 L 2.721263 135.130727 L 6.940399 35.325842 L 12.253918 28.917939 L 71.518619 26.325978 Z M 52.626106 80.747552 L 51.963716 53.685563 L 34.002388 55.17834 L 32.639209 79.384373 Z M 52.626106 80.747552 " stroke="#320057" stroke-width="13.26" stroke-opacity="1" stroke-miterlimit="4"/><g fill="#e67e22" fill-opacity="1"><g transform="translate(125.070553, 174.018612)"><g><path d="M 64.96875 -78.46875 L 66.625 -0.21875 L 43.609375 0.21875 L 42.9375 -27.328125 L 25.34375 -26.234375 L 23.578125 -0.328125 L 2.21875 0.109375 L 5.640625 -81.125 L 9.953125 -86.328125 L 58.21875 -88.421875 Z M 42.828125 -44.15625 L 42.28125 -66.1875 L 27.671875 -64.96875 L 26.5625 -45.265625 Z M 42.828125 -44.15625 "/></g></g></g><path stroke-linecap="butt" transform="matrix(0.583706, 0, 0, 0.583706, 187.499992, 100.904093)" fill="none" stroke-linejoin="miter" d="M 2.723722 26.457798 L 79.154867 26.457798 L 77.930202 52.985515 L 56.314529 53.949186 L 53.323134 132.675741 L 24.901536 135.39945 L 25.56406 53.815343 L 2.857565 52.724521 Z M 135.195004 25.795274 L 164.279126 28.117454 L 161.16058 134.864077 L 132.337452 133.505569 L 133.401505 92.964472 L 114.509541 92.301948 L 113.01719 132.675741 L 84.595592 134.46924 L 85.391959 26.062961 L 116.965564 26.062961 L 115.473212 66.731209 L 134.09749 67.400425 Z M 135.195004 25.795274 " stroke="#320057" stroke-width="15.3" stroke-opacity="1" stroke-miterlimit="4"/><g fill="#e67e22" fill-opacity="1"><g transform="translate(187.499992, 179.704339)"><g><path d="M 1.59375 -63.359375 L 46.203125 -63.359375 L 45.484375 -47.875 L 32.875 -47.3125 L 31.125 -1.34375 L 14.53125 0.234375 L 14.921875 -47.390625 L 1.671875 -48.03125 Z M 1.59375 -63.359375 "/></g></g></g><g fill="#e67e22" fill-opacity="1"><g transform="translate(235.2891, 179.704339)"><g><path d="M 31.125 -63.75 L 48.109375 -62.40625 L 46.28125 -0.078125 L 29.453125 -0.875 L 30.09375 -24.53125 L 19.046875 -24.921875 L 18.1875 -1.34375 L 1.59375 -0.3125 L 2.0625 -63.59375 L 20.484375 -63.59375 L 19.609375 -39.859375 L 30.484375 -39.453125 Z M 31.125 -63.75 "/></g></g></g><path stroke-linecap="butt" transform="matrix(0.670287, 0, 0, 0.670287, 284.987916, 113.124542)" fill="none" stroke-linejoin="miter" d="M 63.895756 30.811882 L 65.545003 107.784515 L 42.898451 108.209939 L 42.23409 81.099348 L 24.931566 82.189133 L 23.177419 107.679615 L 2.180115 108.10504 L 5.55437 28.206887 L 9.808611 23.078486 L 57.252146 21.003815 Z M 42.129191 64.566083 L 41.598868 42.904417 L 27.216035 44.104929 L 26.12625 63.476298 Z M 42.129191 64.566083 " stroke="#320057" stroke-width="15.378311" stroke-opacity="1" stroke-miterlimit="4"/><g fill="#e67e22" fill-opacity="1"><g transform="translate(284.987916, 185.515531)"><g><path d="M 42.828125 -51.734375 L 43.921875 -0.140625 L 28.75 0.140625 L 28.3125 -18.015625 L 16.703125 -17.296875 L 15.546875 -0.21875 L 1.453125 0.078125 L 3.71875 -53.484375 L 6.5625 -56.921875 L 38.375 -58.296875 Z M 28.234375 -29.109375 L 27.875 -43.640625 L 18.234375 -42.828125 L 17.515625 -29.84375 Z M 28.234375 -29.109375 "/></g></g></g><path stroke-linecap="butt" transform="matrix(0.958594, 0, 0, 0.958594, 54.028782, 152.738647)" fill="none" stroke-linejoin="miter" d="M 74.101987 104.685821 L 67.031899 105.484517 L 76.5592 124.938465 L 74.236462 129.555416 L 53.319596 134.999588 L 38.21365 107.411982 L 31.538835 107.676856 L 30.312266 132.277502 L 2.720586 134.60024 L 2.720586 25.936858 L 73.971588 30.28486 L 79.281285 35.598633 L 79.41576 95.557869 Z M 50.731985 81.812966 L 50.862384 51.3688 L 32.899878 49.608409 L 32.239731 83.174009 Z M 50.731985 81.812966 " stroke="#320057" stroke-width="12.23991" stroke-opacity="1" stroke-miterlimit="4"/><g fill="#e67e22" fill-opacity="1"><g transform="translate(54.028782, 282.148833)"><g><path d="M 71.046875 -29.0625 L 64.265625 -28.28125 L 73.390625 -9.640625 L 71.171875 -5.21875 L 51.09375 0 L 36.625 -26.46875 L 30.25 -26.203125 L 29.0625 -2.609375 L 2.609375 -0.390625 L 2.609375 -104.546875 L 70.921875 -100.375 L 76 -95.296875 L 76.125 -37.796875 Z M 48.625 -50.96875 L 48.75 -80.171875 L 31.546875 -81.859375 L 30.890625 -49.671875 Z M 48.625 -50.96875 "/></g></g></g><path stroke-linecap="butt" transform="matrix(2.243356, 0, 0, 2.243356, 203.966139, 177.803192)" fill="none" stroke-linejoin="miter" d="M 28.644772 10.333261 L 31.143469 13.054839 L 30.765618 49.107477 L 28.799743 52.896443 L 4.855777 53.051415 L 1.327998 50.968876 L 1.066811 13.159314 L 2.773238 10.489973 Z M 12.264807 19.292006 L 12.590421 43.937698 L 19.790501 44.420025 L 19.894977 19.929305 Z M 12.264807 19.292006 " stroke="#320057" stroke-width="5.266664" stroke-opacity="1" stroke-miterlimit="4"/><g fill="#e67e22" fill-opacity="1"><g transform="translate(203.966139, 296.701065)"><g><path d="M 64.25 -95.71875 L 69.875 -89.609375 L 69.03125 -8.734375 L 64.609375 -0.234375 L 10.890625 0.125 L 2.984375 -4.546875 L 2.390625 -89.375 L 6.21875 -95.359375 Z M 27.515625 -75.609375 L 28.234375 -20.34375 L 44.390625 -19.265625 L 44.625 -74.171875 Z M 27.515625 -75.609375 "/></g></g></g><path stroke-linecap="butt" transform="matrix(2.243356, 0, 0, 2.243356, 135.029688, 157.672446)" fill="none" stroke-linejoin="miter" d="M 28.644304 10.33408 L 31.144743 13.053917 L 30.766891 49.106556 L 28.801017 52.895522 L 4.85705 53.052234 L 1.327531 50.969696 L 1.068084 13.158392 L 2.77277 10.489052 Z M 12.264339 19.291085 L 12.589954 43.938517 L 19.790034 44.419103 L 19.894509 19.928383 Z M 12.264339 19.291085 " stroke="#320057" stroke-width="5.599997" stroke-opacity="1" stroke-miterlimit="4"/><g fill="#e67e22" fill-opacity="1"><g transform="translate(135.029688, 276.57032)"><g><path d="M 64.25 -95.71875 L 69.875 -89.609375 L 69.03125 -8.734375 L 64.609375 -0.234375 L 10.890625 0.125 L 2.984375 -4.546875 L 2.390625 -89.375 L 6.21875 -95.359375 Z M 27.515625 -75.609375 L 28.234375 -20.34375 L 44.390625 -19.265625 L 44.625 -74.171875 Z M 27.515625 -75.609375 "/></g></g></g><path stroke-linecap="butt" transform="matrix(0.75, 0, 0, 0.75, 276.457515, 165.481835)" fill="none" stroke-linejoin="miter" d="M 54.686858 28.117972 L 85.134777 26.758597 L 81.181652 133.904437 L 56.843109 134.867979 L 31.806649 81.810684 L 29.916023 132.279437 L 2.723313 134.998188 L 3.520188 26.888805 L 32.905607 26.888805 L 54.384775 72.310683 Z M 54.686858 28.117972 " stroke="#320057" stroke-width="15.3" stroke-opacity="1" stroke-miterlimit="4"/><g fill="#e67e22" fill-opacity="1"><g transform="translate(276.457515, 266.731828)"><g><path d="M 41 -80.171875 L 63.859375 -81.1875 L 60.890625 -0.8125 L 42.640625 -0.109375 L 23.875 -39.875 L 22.4375 -2.046875 L 2.046875 0 L 2.65625 -81.09375 L 24.6875 -81.09375 L 40.796875 -47.015625 Z M 41 -80.171875 "/></g></g></g><path stroke-linecap="butt" transform="matrix(2.240567, -0.111831, 0.111831, 2.240567, 259.847507, 23.327588)" fill="none" stroke-linejoin="miter" d="M 18.344539 30.384887 L 25.166879 30.552806 L 25.167068 38.652746 L 18.18909 38.599099 L 18.085596 45.318306 L 9.973482 45.317887 L 10.024621 38.494949 L 3.203422 38.443897 L 3.56816 30.123322 L 10.129549 30.279959 L 10.181553 23.404761 L 18.449782 23.770373 Z M 18.344539 30.384887 " stroke="#320057" stroke-width="4.799997" stroke-opacity="1" stroke-miterlimit="4"/><g fill="#e67e22" fill-opacity="1"><g transform="translate(265.774565, 142.077635)"><g><path d="M 38.578125 -52.71875 L 53.875 -53.125 L 54.78125 -34.953125 L 39.140625 -34.28125 L 39.65625 -19.234375 L 21.484375 -18.328125 L 20.84375 -33.625 L 5.53125 -32.96875 L 5.4375 -51.671875 L 20.15625 -52.046875 L 19.5 -67.46875 L 38.078125 -67.546875 Z M 38.578125 -52.71875 "/></g></g></g><path stroke-linecap="butt" transform="matrix(2.128525, -0.708539, 0.708539, 2.128525, 38.071401, 243.011497)" fill="none" stroke-linejoin="miter" d="M 3.567862 30.176445 L 25.16713 30.554136 L 25.168268 38.704599 L 3.203429 38.443792 Z M 16.965924 29.004163 L 11.198048 29.003774 L 10.077581 27.832488 L 10.936865 23.183695 L 12.368008 21.960705 L 16.262039 21.856691 L 18.241005 23.183455 L 18.135955 27.507064 Z M 11.470181 40.044947 L 17.225392 40.04479 L 18.292448 41.21665 L 17.485468 45.851654 L 16.053775 47.076297 L 12.109065 47.128573 L 10.130119 45.851366 L 10.299043 41.528831 Z M 11.470181 40.044947 " stroke="#320057" stroke-width="3.533331" stroke-opacity="1" stroke-miterlimit="4"/><g fill="#e67e22" fill-opacity="1"><g transform="translate(75.62397, 355.823319)"><g><path d="M -8.5625 -51.109375 L 37.671875 -65.625 L 43.453125 -48.25 L -3.5 -33.25 Z M 19.09375 -63.109375 L 6.84375 -59.03125 L 3.625 -60.71875 L 2.15625 -71.203125 L 4.34375 -74.828125 L 12.546875 -77.8125 L 17.703125 -76.375 L 20.53125 -67.109375 Z M 15.21875 -35.71875 L 27.46875 -39.796875 L 30.59375 -38.03125 L 32.15625 -27.59375 L 29.984375 -23.96875 L 21.609375 -21.0625 L 16.515625 -22.390625 L 13.78125 -31.703125 Z M 15.21875 -35.71875 "/></g></g></g><g fill="#dc1a7d" fill-opacity="0.4"><g transform="translate(265.125257, 143.125532)"><g><path d="M 38.578125 -52.71875 L 53.875 -53.125 L 54.78125 -34.953125 L 39.140625 -34.28125 L 39.65625 -19.234375 L 21.484375 -18.328125 L 20.84375 -33.625 L 5.53125 -32.96875 L 5.4375 -51.671875 L 20.15625 -52.046875 L 19.5 -67.46875 L 38.078125 -67.546875 Z M 38.578125 -52.71875 "/></g></g></g><g fill="#e67e22" fill-opacity="1"><g transform="translate(259.580619, 138.108058)"><g><path d="M 38.578125 -52.71875 L 53.875 -53.125 L 54.78125 -34.953125 L 39.140625 -34.28125 L 39.65625 -19.234375 L 21.484375 -18.328125 L 20.84375 -33.625 L 5.53125 -32.96875 L 5.4375 -51.671875 L 20.15625 -52.046875 L 19.5 -67.46875 L 38.078125 -67.546875 Z M 38.578125 -52.71875 "/></g></g></g><g fill="#dc1a7d" fill-opacity="0.4"><g transform="translate(77.96062, 355.786215)"><g><path d="M -8.5625 -51.109375 L 37.671875 -65.625 L 43.453125 -48.25 L -3.5 -33.25 Z M 19.09375 -63.109375 L 6.84375 -59.03125 L 3.625 -60.71875 L 2.15625 -71.203125 L 4.34375 -74.828125 L 12.546875 -77.8125 L 17.703125 -76.375 L 20.53125 -67.109375 Z M 15.21875 -35.71875 L 27.46875 -39.796875 L 30.59375 -38.03125 L 32.15625 -27.59375 L 29.984375 -23.96875 L 21.609375 -21.0625 L 16.515625 -22.390625 L 13.78125 -31.703125 Z M 15.21875 -35.71875 "/></g></g></g><g fill="#e67e22" fill-opacity="1"><g transform="translate(71.273597, 352.43928)"><g><path d="M -8.5625 -51.109375 L 37.671875 -65.625 L 43.453125 -48.25 L -3.5 -33.25 Z M 19.09375 -63.109375 L 6.84375 -59.03125 L 3.625 -60.71875 L 2.15625 -71.203125 L 4.34375 -74.828125 L 12.546875 -77.8125 L 17.703125 -76.375 L 20.53125 -67.109375 Z M 15.21875 -35.71875 L 27.46875 -39.796875 L 30.59375 -38.03125 L 32.15625 -27.59375 L 29.984375 -23.96875 L 21.609375 -21.0625 L 16.515625 -22.390625 L 13.78125 -31.703125 Z M 15.21875 -35.71875 "/></g></g></g><g fill="#dc1a7d" fill-opacity="0.4"><g transform="translate(55.858506, 282.360474)"><g><path d="M 71.046875 -29.0625 L 64.265625 -28.28125 L 73.390625 -9.640625 L 71.171875 -5.21875 L 51.09375 0 L 36.625 -26.46875 L 30.25 -26.203125 L 29.0625 -2.609375 L 2.609375 -0.390625 L 2.609375 -104.546875 L 70.921875 -100.375 L 76 -95.296875 L 76.125 -37.796875 Z M 48.625 -50.96875 L 48.75 -80.171875 L 31.546875 -81.859375 L 30.890625 -49.671875 Z M 48.625 -50.96875 "/></g></g></g><g fill="#e67e22" fill-opacity="1"><g transform="translate(50.097008, 276.598979)"><g><path d="M 71.046875 -29.0625 L 64.265625 -28.28125 L 73.390625 -9.640625 L 71.171875 -5.21875 L 51.09375 0 L 36.625 -26.46875 L 30.25 -26.203125 L 29.0625 -2.609375 L 2.609375 -0.390625 L 2.609375 -104.546875 L 70.921875 -100.375 L 76 -95.296875 L 76.125 -37.796875 Z M 48.625 -50.96875 L 48.75 -80.171875 L 31.546875 -81.859375 L 30.890625 -49.671875 Z M 48.625 -50.96875 "/></g></g></g><g fill="#dc1a7d" fill-opacity="0.4"><g transform="translate(135.631637, 278.473928)"><g><path d="M 64.25 -95.71875 L 69.875 -89.609375 L 69.03125 -8.734375 L 64.609375 -0.234375 L 10.890625 0.125 L 2.984375 -4.546875 L 2.390625 -89.375 L 6.21875 -95.359375 Z M 27.515625 -75.609375 L 28.234375 -20.34375 L 44.390625 -19.265625 L 44.625 -74.171875 Z M 27.515625 -75.609375 "/></g></g></g><g fill="#e67e22" fill-opacity="1"><g transform="translate(130.344006, 273.186296)"><g><path d="M 64.25 -95.71875 L 69.875 -89.609375 L 69.03125 -8.734375 L 64.609375 -0.234375 L 10.890625 0.125 L 2.984375 -4.546875 L 2.390625 -89.375 L 6.21875 -95.359375 Z M 27.515625 -75.609375 L 28.234375 -20.34375 L 44.390625 -19.265625 L 44.625 -74.171875 Z M 27.515625 -75.609375 "/></g></g></g><g fill="#dc1a7d" fill-opacity="0.4"><g transform="translate(205.392531, 296.22959)"><g><path d="M 64.25 -95.71875 L 69.875 -89.609375 L 69.03125 -8.734375 L 64.609375 -0.234375 L 10.890625 0.125 L 2.984375 -4.546875 L 2.390625 -89.375 L 6.21875 -95.359375 Z M 27.515625 -75.609375 L 28.234375 -20.34375 L 44.390625 -19.265625 L 44.625 -74.171875 Z M 27.515625 -75.609375 "/></g></g></g><g fill="#e67e22" fill-opacity="1"><g transform="translate(200.104899, 290.941958)"><g><path d="M 64.25 -95.71875 L 69.875 -89.609375 L 69.03125 -8.734375 L 64.609375 -0.234375 L 10.890625 0.125 L 2.984375 -4.546875 L 2.390625 -89.375 L 6.21875 -95.359375 Z M 27.515625 -75.609375 L 28.234375 -20.34375 L 44.390625 -19.265625 L 44.625 -74.171875 Z M 27.515625 -75.609375 "/></g></g></g><g fill="#dc1a7d" fill-opacity="0.4"><g transform="translate(277.640816, 268.768341)"><g><path d="M 41 -80.171875 L 63.859375 -81.1875 L 60.890625 -0.8125 L 42.640625 -0.109375 L 23.875 -39.875 L 22.4375 -2.046875 L 2.046875 0 L 2.65625 -81.09375 L 24.6875 -81.09375 L 40.796875 -47.015625 Z M 41 -80.171875 "/></g></g></g><g fill="#e67e22" fill-opacity="1"><g transform="translate(273.133023, 264.260534)"><g><path d="M 41 -80.171875 L 63.859375 -81.1875 L 60.890625 -0.8125 L 42.640625 -0.109375 L 23.875 -39.875 L 22.4375 -2.046875 L 2.046875 0 L 2.65625 -81.09375 L 24.6875 -81.09375 L 40.796875 -47.015625 Z M 41 -80.171875 "/></g></g></g><g fill="#dc1a7d" fill-opacity="0.4"><g transform="translate(59.91799, 174.356826)"><g><path d="M 66.203125 -77.28125 L 67.078125 -0.1875 L 46.671875 -0.6875 L 45.109375 -44.625 L 34.3125 -28.484375 L 24.203125 -44.046875 L 22.65625 -0.96875 L 1.9375 -0.1875 L 3.015625 -77.96875 L 23.53125 -77.671875 L 34.3125 -60.171875 L 44.71875 -77.578125 Z M 66.203125 -77.28125 "/></g></g></g><g fill="#e67e22" fill-opacity="1"><g transform="translate(55.621419, 170.060255)"><g><path d="M 66.203125 -77.28125 L 67.078125 -0.1875 L 46.671875 -0.6875 L 45.109375 -44.625 L 34.3125 -28.484375 L 24.203125 -44.046875 L 22.65625 -0.96875 L 1.9375 -0.1875 L 3.015625 -77.96875 L 23.53125 -77.671875 L 34.3125 -60.171875 L 44.71875 -77.578125 Z M 66.203125 -77.28125 "/></g></g></g><g fill="#dc1a7d" fill-opacity="0.4"><g transform="translate(127.152637, 175.069191)"><g><path d="M 64.96875 -78.46875 L 66.625 -0.21875 L 43.609375 0.21875 L 42.9375 -27.328125 L 25.34375 -26.234375 L 23.578125 -0.328125 L 2.21875 0.109375 L 5.640625 -81.125 L 9.953125 -86.328125 L 58.21875 -88.421875 Z M 42.828125 -44.15625 L 42.28125 -66.1875 L 27.671875 -64.96875 L 26.5625 -45.265625 Z M 42.828125 -44.15625 "/></g></g></g><g fill="#e67e22" fill-opacity="1"><g transform="translate(122.261284, 170.177833)"><g><path d="M 64.96875 -78.46875 L 66.625 -0.21875 L 43.609375 0.21875 L 42.9375 -27.328125 L 25.34375 -26.234375 L 23.578125 -0.328125 L 2.21875 0.109375 L 5.640625 -81.125 L 9.953125 -86.328125 L 58.21875 -88.421875 Z M 42.828125 -44.15625 L 42.28125 -66.1875 L 27.671875 -64.96875 L 26.5625 -45.265625 Z M 42.828125 -44.15625 "/></g></g></g><g fill="#dc1a7d" fill-opacity="0.4"><g transform="translate(187.887151, 179.012383)"><g><path d="M 1.59375 -63.359375 L 46.203125 -63.359375 L 45.484375 -47.875 L 32.875 -47.3125 L 31.125 -1.34375 L 14.53125 0.234375 L 14.921875 -47.390625 L 1.671875 -48.03125 Z M 1.59375 -63.359375 "/></g></g></g><g fill="#dc1a7d" fill-opacity="0.4"><g transform="translate(235.676259, 179.012383)"><g><path d="M 31.125 -63.75 L 48.109375 -62.40625 L 46.28125 -0.078125 L 29.453125 -0.875 L 30.09375 -24.53125 L 19.046875 -24.921875 L 18.1875 -1.34375 L 1.59375 -0.3125 L 2.0625 -63.59375 L 20.484375 -63.59375 L 19.609375 -39.859375 L 30.484375 -39.453125 Z M 31.125 -63.75 "/></g></g></g><g fill="#e67e22" fill-opacity="1"><g transform="translate(184.378836, 175.504075)"><g><path d="M 1.59375 -63.359375 L 46.203125 -63.359375 L 45.484375 -47.875 L 32.875 -47.3125 L 31.125 -1.34375 L 14.53125 0.234375 L 14.921875 -47.390625 L 1.671875 -48.03125 Z M 1.59375 -63.359375 "/></g></g></g><g fill="#e67e22" fill-opacity="1"><g transform="translate(232.167944, 175.504075)"><g><path d="M 31.125 -63.75 L 48.109375 -62.40625 L 46.28125 -0.078125 L 29.453125 -0.875 L 30.09375 -24.53125 L 19.046875 -24.921875 L 18.1875 -1.34375 L 1.59375 -0.3125 L 2.0625 -63.59375 L 20.484375 -63.59375 L 19.609375 -39.859375 L 30.484375 -39.453125 Z M 31.125 -63.75 "/></g></g></g><g fill="#dc1a7d" fill-opacity="0.4"><g transform="translate(286.591889, 184.89988)"><g><path d="M 42.828125 -51.734375 L 43.921875 -0.140625 L 28.75 0.140625 L 28.3125 -18.015625 L 16.703125 -17.296875 L 15.546875 -0.21875 L 1.453125 0.078125 L 3.71875 -53.484375 L 6.5625 -56.921875 L 38.375 -58.296875 Z M 28.234375 -29.109375 L 27.875 -43.640625 L 18.234375 -42.828125 L 17.515625 -29.84375 Z M 28.234375 -29.109375 "/></g></g></g><g fill="#e67e22" fill-opacity="1"><g transform="translate(283.366774, 181.674756)"><g><path d="M 42.828125 -51.734375 L 43.921875 -0.140625 L 28.75 0.140625 L 28.3125 -18.015625 L 16.703125 -17.296875 L 15.546875 -0.21875 L 1.453125 0.078125 L 3.71875 -53.484375 L 6.5625 -56.921875 L 38.375 -58.296875 Z M 28.234375 -29.109375 L 27.875 -43.640625 L 18.234375 -42.828125 L 17.515625 -29.84375 Z M 28.234375 -29.109375 "/></g></g></g></svg>